<?xml version="1.0"?>
<svg xmlns="http://www.w3.org/2000/svg" xmlns:xlink="http://www.w3.org/1999/xlink" xmlns:svgjs="http://svgjs.com/svgjs" version="1.1" width="512" height="512" x="0" y="0" viewBox="0 0 600 600.676" style="enable-background:new 0 0 512 512" xml:space="preserve" class=""><g>
<g xmlns="http://www.w3.org/2000/svg" id="surface1">
<path d="M 579.878906 474.890625 L 456.546875 351.5625 L 451.378906 356.730469 C 442.816406 365.292969 428.921875 365.292969 420.363281 356.730469 C 411.800781 348.171875 411.800781 334.277344 420.363281 325.714844 L 425.53125 320.546875 L 394.515625 289.53125 L 291.128906 392.917969 L 322.144531 423.933594 L 327.316406 418.761719 C 335.875 410.203125 349.769531 410.203125 358.332031 418.761719 C 366.890625 427.324219 366.890625 441.21875 358.332031 449.78125 L 353.160156 454.949219 L 476.492188 578.277344 C 480.234375 581.992188 484.359375 585.289062 488.804688 588.109375 L 589.710938 487.207031 C 586.875 482.761719 583.578125 478.625 579.878906 474.890625 Z M 579.878906 474.890625 " style="" fill="#096bd4" data-original="#88b337" class=""/>
<path d="M 589.710938 487.207031 L 488.804688 588.109375 C 522.734375 609.90625 567.917969 600.074219 589.710938 566.140625 C 605.15625 542.09375 605.15625 511.242188 589.710938 487.207031 Z M 589.710938 487.207031 " style="" fill="#dadddf" data-original="#dadddf" class=""/>
<path d="M 125.710938 82.757812 L 115.375 41.402344 L 43.003906 0.0507812 L 1.648438 41.402344 L 43.003906 113.773438 L 84.359375 124.113281 L 322.144531 361.902344 L 363.5 320.546875 Z M 125.710938 82.757812 " style="" fill="#cfd2d4" data-original="#cfd2d4" class=""/>
<path d="M 597.792969 86.253906 L 528.917969 155.128906 L 466.886719 134.453125 L 446.210938 72.417969 L 515.085938 3.542969 C 454.480469 -11.921875 392.820312 24.675781 377.355469 85.28125 C 372.671875 103.652344 372.671875 122.902344 377.355469 141.273438 L 142.875 375.753906 C 81.648438 360.214844 19.421875 397.238281 3.882812 458.464844 C -11.660156 519.6875 25.363281 581.917969 86.589844 597.457031 C 147.816406 612.996094 210.042969 575.972656 225.582031 514.75 C 230.265625 496.285156 230.265625 476.929688 225.582031 458.464844 L 460.0625 223.984375 C 520.710938 239.410156 582.367188 202.75 597.792969 142.101562 C 602.445312 123.773438 602.445312 104.574219 597.792969 86.253906 Z M 146.390625 537.660156 L 84.359375 537.660156 L 53.339844 485.964844 L 84.359375 434.273438 L 146.390625 434.273438 L 177.40625 485.964844 Z M 146.390625 537.660156 " style="" fill="#dadddf" data-original="#dadddf" class=""/>
<path d="M 180.410156 406.277344 L 407.859375 178.828125 L 422.480469 193.449219 L 195.03125 420.898438 Z M 180.410156 406.277344 " style="" fill="#b6b8ba" data-original="#b6b8ba" class=""/>
<path d="M 407.867188 420.90625 L 422.488281 406.285156 L 525.871094 509.671875 L 511.25 524.292969 Z M 407.867188 420.90625 " style="" fill="#004a99" data-original="#6b962a" class=""/>
<path d="M 601.289062 526.585938 C 601.277344 512.617188 597.257812 498.949219 589.710938 487.207031 L 559.933594 516.980469 L 559.933594 592.359375 C 585.203125 580.191406 601.269531 554.625 601.289062 526.585938 Z M 601.289062 526.585938 " style="" fill="#cfd2d4" data-original="#cfd2d4" class=""/>
</g>
</g></svg>
