<svg id="Capa_1" data-name="Capa 1" xmlns="http://www.w3.org/2000/svg" viewBox="0 0 400.19 209.08"><defs><style>.cls-1{fill:#fff;}</style></defs><title>hbi-recortado</title><path class="cls-1" d="M33.88,0a22.73,22.73,0,0,0,2.61.35h8.9c1.85,0,2,.18,2.16,2,.19,2.58.41,5.17.41,7.76v144.2c0,15.5.09,31,.12,46.5A33,33,0,0,1,47.9,205c-.25,1.92-1.19,3.38-3.29,3.65a29.42,29.42,0,0,1-4.19.3c-7.26-.1-14.52-.32-21.79-.37-3.78,0-7.55.28-11.33.35a22.37,22.37,0,0,1-4-.36A2.71,2.71,0,0,1,1,206.19a24.47,24.47,0,0,1-.43-4q.09-25.24.25-50.5V5.8A14.77,14.77,0,0,0,.74,3.14,13.53,13.53,0,0,0,0,.9C.13.62-.49,0,.39,0H33.88Z" transform="translate(0.1 0)"/><path class="cls-1" d="M184,.58c1.08-.09,1.87-.2,2.67-.2h74.55a15.78,15.78,0,0,1,3.92.61c4,1.05,8,2.09,12,3.31,11.78,3.64,21.29,10.61,29,20.07a62.36,62.36,0,0,1,13.71,31.39,60.13,60.13,0,0,1-5.62,35.89c-2.19,4.38-1.79,7.85,1.52,11.5,8.38,9.22,13.92,20,15.6,32.39,3.55,26.09-5.24,47.23-26.66,62.78a57.51,57.51,0,0,1-24.45,10.07,32.6,32.6,0,0,1-5.32.28q-33.6,0-67.21.07c-4.74,0-9.49.2-14.23.24a46.19,46.19,0,0,1-5.76-.27c-2.64-.31-3.59-1.4-3.68-4.09-.06-1.78.07-3.56.08-5.34V172.81c0-1.93-.12-3.85-.09-5.78.06-3,1.23-4.33,4.18-4.34,9-.05,18.09.09,27.14.1q17.91,0,35.82-.07c5.41,0,10.83-.08,16.24-.06a20.49,20.49,0,0,0,7.39-1.35c6.55-2.48,10.81-8.45,10.43-16.44-.5-10.61-8.37-15.36-15.51-15.94-3.31-.27-6.65-.4-10-.4q-35.16,0-70.32.06H187.2c-2-.12-2.78-.85-3.08-2.8a12.13,12.13,0,0,1-.06-2c.07-9.27.17-18.54.2-27.81,0-3-.16-6.08-.2-9.12a9.83,9.83,0,0,1,.22-2.42,2.72,2.72,0,0,1,2.79-2.39c1-.09,2.08-.08,3.11-.08,20.92,0,41.84.06,62.76,0a37,37,0,0,0,7.92-.88c10.67-2.4,18-16.58,8.21-27.23a19,19,0,0,0-7-5,12.47,12.47,0,0,0-4.32-.71q-26.15-.1-52.29-.09c-4.23,0-8.45.2-12.68.24a34.68,34.68,0,0,1-5.09-.29c-2.58-.36-3.6-1.51-3.68-4.16s0-5.49,0-8.23V.62Z" transform="translate(0.1 0)"/><path class="cls-1" d="M115.3.5c16.17.08,31.91-.31,47.87,0V4.93c-.07,2.37-.24,4.74-.24,7.11q0,78.56-.06,157.11v30.71c0,1.55.21,3.1.31,4.65a8.9,8.9,0,0,1,.06,1.55c-.19,1.85-1,2.6-2.87,2.6h-18c-5.34,0-10.68,0-16,.11-1.93,0-3.85.21-5.77.28a9.09,9.09,0,0,1-2.21-.12c-1.81-.38-2.35-1.06-2.43-2.91v-2.44l.09-67.21c0-.81,0-1.63-.07-2.44-.26-3.48-2-5.26-5.56-5.37-2.81-.09-5.63.07-8.45.07H72.4c-2.63,0-3.22-.64-3.19-3.38.09-8.6.24-17.2.34-25.8.06-4.67.08-9.35.11-14,0-3.43.65-4,4.16-3.94,3.26.07,6.52.13,9.79.13h28.25c2.53-.12,3.67-1.19,3.71-3.72V66.8l-.12-33.6q-.06-14.81-.11-29.6C115.29,2.7,115.3,1.83,115.3.5Z" transform="translate(0.1 0)"/><path class="cls-1" d="M352.72,138.83V72.74c.11-2.81,1.1-3.9,4-3.95,2.59-.05,5.19.21,7.78.19,9.49,0,19-.15,28.46-.2a36.06,36.06,0,0,1,4.64.33,2.48,2.48,0,0,1,2.17,2.22,14.63,14.63,0,0,1,.3,2.64c0,4.23-.17,8.45-.18,12.68v99.68c0,5.41.13,10.82.2,16.23.06,4.87-.47,6.62-6.64,6.51-10.23-.18-20.46-.19-30.69-.23-1.7,0-3.4.2-5.1.23a15.21,15.21,0,0,1-2.42-.28,2.79,2.79,0,0,1-2.42-2.77,21.65,21.65,0,0,1-.07-2.67Q352.72,171.09,352.72,138.83Z" transform="translate(0.1 0)"/><path class="cls-1" d="M399.17.53c.18,1.85.46,3.38.47,4.92.09,9.34.12,18.67.16,28v12c-.15,1.49-.58,2-2,2.13a22.1,22.1,0,0,1-2.44.08H368c-3.63,0-7.25.15-10.88.19a11.48,11.48,0,0,1-2.19-.25,2.43,2.43,0,0,1-2.07-2.3,15,15,0,0,1-.07-2.22q-.09-20-.16-40V2c0-1,.42-1.54,1.45-1.56h42.47A26,26,0,0,1,399.17.53Z" transform="translate(0.1 0)"/></svg>