<svg id="Capa_1" data-name="Capa 1" xmlns="http://www.w3.org/2000/svg" viewBox="0 0 1130.47 234.92"><defs><style>.cls-1{fill:#1562b7;}.cls-2{fill:#fff;}</style></defs><title>hbi-azul</title><path class="cls-1" d="M397.08,250.41c7.88,2.76,16.21,3.88,23.86,7.61,35.77,17.48,51,60.8,33.21,96.33-2.57,5.14-1.42,7.66,1.9,11.37,36.78,41.3,16.89,105.39-36.67,118.35a38.55,38.55,0,0,1-9,1c-31.79.07-63.59-.08-95.38.17-5.37,0-7.47-.82-7.22-6.86.53-13.1.43-26.24,0-39.35-.16-5.17,1.58-6.3,6.38-6.27q43.53.29,87.06.06c12.19-.05,20.21-7.64,20.27-18.67.07-11.37-8-19-20.69-19.09-17.66-.17-35.32,0-53,0-11.6,0-23.21-.13-34.82.06-3.9.07-5.23-1.12-5.16-5.14.22-14.13.33-28.26,0-42.39-.14-5.16,2.06-5.65,6.24-5.63,24,.14,47.94,0,71.91.1,6.82,0,13.08-1.22,17.75-6.67,9.13-10.67,4.66-24.85-9.65-30.76-17.58-1.09-35.19-.22-52.78-.45-8.56-.12-17.13-.34-25.66.09-5.48.28-7.5-1.11-7.29-7,.46-13.07.47-26.18,0-39.24-.22-6,2-7,7.35-6.95,23.65.27,47.31.14,71,.08,2.46,0,5,.67,7.38-.74Z" transform="translate(-101.76 -250.41)"/><path class="cls-1" d="M154.77,250.41c.26,2.73.73,5.47.74,8.21,0,72.89-.09,145.78.22,218.67,0,7-2.08,8.24-8.4,8-12.84-.49-25.73-.51-38.57,0-6,.24-6.88-1.82-6.86-7.21q.27-112,.11-224c0-1.25-.16-2.49-.25-3.73Z" transform="translate(-101.76 -250.41)"/><path class="cls-1" d="M550,250.41c1.71,16.77.32,33.6.77,50.4.09,3.39-2.11,3.39-4.51,3.38-14.82,0-29.65-.15-44.48.08-4.56.07-4.58-2.32-4.58-5.66,0-16.07-.12-32.14-.21-48.2Z" transform="translate(-101.76 -250.41)"/><path class="cls-1" d="M1232.24,442.34c-3.69-.1-7.38-.16-11.06-.3-1.61-.06-3.22.25-4.41-1.63-1.51-2.39-.85-6.66-5.4-6.6-6,.08-11.92.1-17.89.21a2.63,2.63,0,0,0-1.47.78c-8.26,7.56-8.25,7.56-18.77,6.74l11.14-28.48c2.37-6.07,4.71-12.15,7.11-18.2,3.64-9.13,7.51-11,17.29-9.24,3.5.62,3.62,3.19,4.51,5.34,6.38,15.39,12.64,30.83,19,46.26Z" transform="translate(-101.76 -250.41)"/><path class="cls-1" d="M285,250.41c-.12,4.76-.35,9.52-.35,14.29q0,106.2-.09,212.39c0,2.53,1.45,5.5-1.19,7.69-3.3-3.9-2.27-8.64-2.27-13.06Q281,370.34,281.05,269c0-14.59,0-14.59-14.45-14.6-7.57,0-15.14-.08-22.7,0-8.63.12-9.37.8-9.41,9.69-.11,21.68,0,43.37-.05,65.06,0,15.26-.86,16.06-16.4,16.08-9.84,0-19.68.08-29.51,0-3.24,0-6.63.23-9.28-2.31,2.8-2.46,6.16-1.11,9.23-1.16,12.3-.18,24.62-.14,36.93,0,3.4,0,5.58-.19,5.53-4.67-.29-28.87-.33-57.74-.45-86.6Z" transform="translate(-101.76 -250.41)"/><path class="cls-1" d="M394.05,250.41c-1.77,2.86-4.58,1.43-6.88,1.44-23.72.11-47.43.21-71.14,0-5.21-.05-7.06,1.37-6.9,6.77q.54,18.9,0,37.84c-.14,5.23,1.36,6.9,6.73,6.84,23.46-.28,46.93-.15,70.39-.07,2.64,0,5.6-1,7.85,1.43-26.35,0-52.71-.23-79.07.09-6.07.07-7.59-1.76-7.44-7.62.4-15.55.14-31.12.14-46.68Z" transform="translate(-101.76 -250.41)"/><path class="cls-1" d="M179.25,342.87c15.14.06,30.28-.13,45.41.31,6,.17,7.82-1.65,7.75-7.7-.31-25.48,0-51-.26-76.46-.07-5.6,1.37-7.44,7.14-7.24,12.35.45,24.75.59,37.08,0,7-.36,6.93,3.15,6.92,8.18q-.14,107.9-.05,215.77c0,3,.09,6.06.14,9.08-15.85.12-31.7,0-47.54.48-5.44.15-4.61-3-4.61-6.26,0-25.18-.28-50.36.19-75.53.13-7.08-1.95-8.87-8.75-8.58-12.82.54-25.67.15-38.51.16-2.76,0-5.56.57-5.47-3.91C179,375.05,179.08,359,179.25,342.87Z" transform="translate(-101.76 -250.41)"/><path class="cls-1" d="M550.81,406.66c0,24-.16,47.95.12,71.93.06,5.24-1.24,6.84-6.61,6.69-13.87-.4-27.77-.29-41.64,0-4.28.08-5.5-1.16-5.49-5.46q.22-73.45,0-146.9c0-4.18,1-5.67,5.42-5.59,14.13.26,28.27.3,42.4,0,4.72-.11,5.94,1.29,5.89,5.93C550.69,357.69,550.81,382.18,550.81,406.66Z" transform="translate(-101.76 -250.41)"/><path class="cls-1" d="M813.08,414.8c0-7.85.38-15.73-.11-23.55-.47-7.57,4.74-5.05,8.48-5.57,4.59-.64,6.43.68,6.29,5.81-.37,13.9,0,27.82-.25,41.72-.06,2.91,2.36,8-2.28,8.49-4.81.52-10.61,2.75-14.69-3.19-6.22-9.05-13-17.74-20.36-27.77-1.72,9.25-1.07,17.3-.78,25.21.21,5.93-2.54,6.37-7.18,6.2-4.21-.15-7.6.37-7.38-5.95.48-13.89,0-27.82.3-41.72.06-2.86-2.66-8,2.41-8.45,4.82-.42,10.56-2.72,14.63,3.32,6,8.87,12.62,17.3,19,25.91Z" transform="translate(-101.76 -250.41)"/><path class="cls-1" d="M1004.33,323c0,7.88-.37,15.79.12,23.65.43,7-4.26,5.11-7.84,5.21s-7.2,1.25-7-5.08c.51-14.19.05-28.4.26-42.6,0-2.75-1.93-7.57,2-7.93,4.82-.44,10.68-3,14.8,2.77a236.63,236.63,0,0,0,21.54,26.69c0-7.31.21-14.64-.07-21.94-.21-5.15.12-8.15,6.95-8.24,7.2-.09,7.61,3,7.47,8.6-.32,13.06.1,26.13-.26,39.19-.08,2.79,2.82,8-2.52,8.28-4.8.27-10.5,2.81-14.57-3.33-5.91-8.89-12.61-17.24-19-25.83Z" transform="translate(-101.76 -250.41)"/><path class="cls-1" d="M677.09,410c0,10.5-.42,18.45.13,26.32.46,6.52-3.42,5.83-7.5,5.79s-7.8.86-7.58-5.72c.48-13.92,0-27.87.29-41.8.07-2.89-2.6-8.06,2.37-8.5,4.81-.44,10.62-2.87,14.68,3.19,5.37,8,11.33,15.64,17.13,23.36.92,1.23,1.44,3.16,4.37,3.11,0-7.25.22-14.51-.07-21.76-.21-5.37-.11-8.54,7.28-8.61,8.09-.08,6.77,4.32,6.76,9,0,13.08.11,26.17-.11,39.25-.05,2.78,1.92,7.58-1.9,8-4.83.55-10.69,2.88-14.79-3C691.84,429.65,685.15,420.91,677.09,410Z" transform="translate(-101.76 -250.41)"/><path class="cls-1" d="M991.51,418.26c0-11,.31-19.47-.11-27.93-.28-5.82,3.45-4.78,6.61-4.55s7.67-2.17,7.54,4.52c-.29,15.61-.07,31.24-.13,46.86,0,1.8.71,4.84-2.1,4.66-4.75-.3-10.18,2.65-14.1-2.81-6.59-9.17-13.44-18.16-21.61-29.15,0,10.35-.36,18.68.12,26.95.35,6-3.22,5.36-7,5.26s-8,1.25-7.81-5.45c.4-13.91,0-27.84.24-41.75,0-3-2.25-8.18,2.12-8.76,5-.67,11.08-2.77,15.32,3.63C976.7,398.88,983.57,407.49,991.51,418.26Z" transform="translate(-101.76 -250.41)"/><path class="cls-1" d="M1053.25,324.27c0-6.24.64-12.57-.15-18.71-1.13-8.67,2.43-10.52,10.33-9.94a240.71,240.71,0,0,0,28.93,0c5.17-.23,5.58,2.25,5.33,6.16-.23,3.51,1.13,7.64-5.13,7.17a150.05,150.05,0,0,0-17.87,0c-2.57.11-6.57-2-6.69,3.61-.13,6.06,4.17,4,7.09,4.18a126.29,126.29,0,0,0,12.76,0c4.68-.21,7.79-.1,7.82,6.48s-2.91,6.69-7.65,6.45-9.65.1-14.47-.11c-3.57-.14-5.7.2-5.65,4.83.06,4.83,2.68,4.67,6,4.61,5.39-.1,10.78.09,16.17-.06,4.53-.13,8-.38,7.88,6.35-.08,6.11-2.4,6.77-7.4,6.61-9.92-.31-19.88-.42-29.79,0-5.72.26-8.17-1-7.63-7.3C1053.7,337.93,1053.25,331.08,1053.25,324.27Z" transform="translate(-101.76 -250.41)"/><path class="cls-1" d="M1144.32,441.12c-11.57,3.08-19,0-23.36-9.88a19.48,19.48,0,0,0-3.94-5.53c-1.48-1.52-3.63-1.59-5.62-1-2.19.65-1.74,2.62-1.78,4.24a37,37,0,0,0,0,6.82c1.07,6.68-3.13,6.08-7.65,6.45-5.59.45-6.57-1.78-6.46-6.77.3-14.5.26-29,0-43.52-.08-4.5.7-6.66,5.89-6.32,7.65.5,15.37-.07,23,.41,8.66.54,15,4.73,17.7,13.42,2.58,8.29.39,15.55-6.36,20.46-4,2.91-3.35,4.61-1,7.69C1138,431.8,1140.91,436.24,1144.32,441.12Z" transform="translate(-101.76 -250.41)"/><path class="cls-1" d="M720.05,324c-.06,15.8-14.34,29.44-30.58,29.22-16-.22-29.77-13.55-30-29-.24-15.81,13.79-29.49,30.24-29.49C706.33,294.77,720.12,308.07,720.05,324Z" transform="translate(-101.76 -250.41)"/><path class="cls-1" d="M951.94,294.86c16.83.67,30,14.23,29.32,30.23-.64,15.4-15,28.56-30.78,28.17-16.44-.41-30.3-14.39-29.81-30.06C921.17,307.19,935.5,294.2,951.94,294.86Z" transform="translate(-101.76 -250.41)"/><path class="cls-1" d="M899.6,412.4c.74-7.51-4-19.9,1.76-25.17,5-4.59,17.24-1.34,26.28-1.52,2.84,0,5.68,0,8.52,0,4,.06,8.17-1.44,8.15,5.88,0,7-3.28,7-8.23,6.71-5.39-.26-10.79,0-16.19-.08-3.29-.05-6.16-.23-6.12,4.6.05,4.59,2.94,3.93,5.72,3.94,4.83,0,9.68.33,14.47-.08,5.37-.47,7.48,1,7.42,6.87-.06,5.53-2.1,6.77-7,6.4s-9.65-.08-14.48-.09c-3.08,0-6.15-.72-6.16,4.39,0,4.74,2.41,4.81,5.84,4.75,6.53-.13,13.08.26,19.58-.13,5.55-.34,5,3.12,4.87,6.55-.08,3.24,1,6.89-4.68,6.73-11.63-.32-23.28-.21-34.92,0-3.78.06-4.95-1.35-4.86-5C899.73,429.49,899.6,421.81,899.6,412.4Z" transform="translate(-101.76 -250.41)"/><path class="cls-1" d="M877.5,409.61a39.62,39.62,0,0,0,6-.05c5.39-.81,7.31,1.52,6.49,6.67a9.64,9.64,0,0,0,0,1.7c.08,19.41-9.69,27.59-29.15,24.4-11.81-1.94-22.33-12.58-24.22-24.5-1.84-11.6,4.66-23.69,15.88-29.55,10.81-5.65,26.49-4.13,34.5,3.26,1.84,1.7,3.72,3.56.59,5.23-3.4,1.81-4.38,8.67-10.66,4.81-9.61-5.9-17.67-4.61-23,3.49-4.24,6.46-3.73,13.13,1.13,18.94,4.56,5.47,10.53,7.45,17.57,4.73,2.36-.92,3.73-2.32,3.64-5.05-.1-3.39-2.36-3.38-4.72-3.24-4.23.25-7.56.44-7.41-5.87.17-7.16,4.91-4.48,8.29-4.93A39.58,39.58,0,0,1,877.5,409.61Z" transform="translate(-101.76 -250.41)"/><path class="cls-1" d="M609.08,413.7c0-7.4.18-14.8-.07-22.19-.14-4.09.54-6.09,5.42-5.92,11.37.38,22.77.41,34.14,0,5.49-.2,5,2.85,4.94,6.37s.66,6.78-4.9,6.4c-6.8-.47-13.65,0-20.48-.16-3.39-.07-5.23.61-5.21,4.64s2.11,4,4.88,3.95c5.41,0,10.85.39,16.21-.12,5.63-.54,6.39,1.9,6.52,6.82.15,5.49-1.76,6.94-6.86,6.47a97.16,97.16,0,0,0-13.65,0c-2.95.14-7-1.75-7.13,4.26-.16,6.59,4.29,4.62,7.52,4.73a157.34,157.34,0,0,0,17.91-.05c6.24-.51,5.06,3.49,5.18,7.07s.24,6.49-5.17,6.27c-11.36-.47-22.76-.33-34.14-.05-4.26.1-5.32-1.45-5.19-5.4C609.26,429.07,609.08,421.38,609.08,413.7Z" transform="translate(-101.76 -250.41)"/><path class="cls-1" d="M1062.25,442.06c-5.51-.58-14.25,2.9-18.48-1.33s-1.11-13-1.27-19.71c-.23-9.67.14-19.35-.15-29-.13-4.47.6-6.62,5.86-6.42,11.08.42,22.19.36,33.28,0,4.91-.15,5.47,2,5.47,6.09,0,4.25-.27,7-5.76,6.66-6.8-.45-13.66,0-20.48-.17-3.37-.1-4.35,1.14-4.43,4.43-.08,3.52,1.35,4.3,4.5,4.21,6-.18,12,.31,17.91-.15,6.4-.5,4.73,3.8,5,7.21.35,4-.29,6.47-5.32,6.08-5.66-.43-11.38.05-17.06-.15-3.38-.12-5.14.45-5.11,4.52,0,3.87,1.35,4.83,5,4.7,6.82-.24,13.67.22,20.48-.16,5.21-.3,5.26,2.57,5.22,6.35s.33,7.37-5.5,6.94S1069.46,442.06,1062.25,442.06Z" transform="translate(-101.76 -250.41)"/><path class="cls-1" d="M829.19,315.21c0,4.54.27,9.11-.05,13.63-1,14.56-11,24-25.52,24.43-14.06.44-25.4-9-26.63-23.3-.84-9.87-.19-19.87-.34-29.8-.1-6.6,4.82-4.06,7.91-4.28s7.13-1.43,7,4.38c-.23,8.8-.19,17.61,0,26.42.16,8.2,4.52,13.1,11.32,13.2s11.54-4.69,11.86-12.8c.33-8.51.44-17.06,0-25.56-.36-6.36,3.37-5.79,7.51-5.79s8-.56,7.25,5.85c-.55,4.47-.1,9.07-.1,13.62Z" transform="translate(-101.76 -250.41)"/><path class="cls-1" d="M1129.12,294.62c4.34.47,8.79.79,12.42,3,2.76,1.66,9.26,1.57,6.63,7.22-1.94,4.17-4.4,10.74-11.6,4.67-3.06-2.59-7.41-2.5-11.45-2.24-2.49.17-4.57,1-5,3.64s1.49,4.22,3.77,4.89c4.89,1.43,9.92,2.41,14.77,3.94,7.64,2.41,13.06,6.68,12.56,15.81-.46,8.26-5,14.05-13.54,16.37-10.46,2.86-20.26.85-29.46-4.38-2.34-1.33-6.87-2.76-3.1-6.72,2.4-2.51,3.46-8.9,9.56-4.42a23.36,23.36,0,0,0,15.19,4.52c2.75-.14,6.08-.46,6.72-4,.7-3.94-2.69-4.51-5.33-5.3-4.33-1.3-8.81-2.12-13.1-3.55-9.68-3.23-13.06-7.88-12.5-16.6.54-8.29,6.14-14.28,15.08-15.9C1123.48,295,1126.31,294.9,1129.12,294.62Z" transform="translate(-101.76 -250.41)"/><path class="cls-1" d="M629.21,294.73c5.3.47,10.38.89,15.13,3,7.93,3.51,8.21,5.16,2.95,11.9-2,2.6-3.42,3-6.07,1.15a20.3,20.3,0,0,0-12.87-3.6c-2.73.14-5.34.65-5.93,3.7-.62,3.21,1.86,4.46,4.42,5.17,4.91,1.37,10,2.24,14.77,3.93,6.79,2.41,12,6.38,11.9,14.66-.11,8.46-4.23,14.22-12,16.73-11.45,3.7-22.42,1.74-32.55-4.68-2.05-1.29-5.21-2.88-1.87-5.66,2.55-2.12,3-8.56,8.6-5.16s11.2,5.58,17.69,4.82c2.48-.3,5.21-1,5.36-4.37.13-3-2.29-3.76-4.38-4.42-4.32-1.36-8.79-2.23-13.1-3.63-10.34-3.36-14.37-8.37-13.72-16.66.72-9.05,7.24-15.09,17.66-16.36C626.63,295.07,628,294.88,629.21,294.73Z" transform="translate(-101.76 -250.41)"/><path class="cls-1" d="M867,294.72c5.54.51,10.25,1.14,14.64,3.49,9.27,5,9.34,6.36,1.41,13-2.89,2.43-4.27,1.58-6.92-.26-7.26-5-14.14-4-19.74,2.22a16.09,16.09,0,0,0-.48,21c5.17,6.26,12.95,8.06,19.69,3,7.32-5.48,10.17,1.39,12.48,4.63,3.25,4.56-2.92,5.64-5.54,7.17a29.9,29.9,0,0,1-34.81-3.34c-9.38-8.1-12.63-20.34-8.38-31.56A30.06,30.06,0,0,1,867,294.72Z" transform="translate(-101.76 -250.41)"/><path class="cls-1" d="M728.59,324.54c0-7.37.43-14.78-.14-22.11-.46-6,2.16-6.66,7.27-6.83,5.82-.21,7.17,1.83,6.93,7.24-.41,9.62.28,19.3-.25,28.91-.35,6.24,2,7.94,7.73,7.36,3.93-.4,8,.26,11.89-.16,5.64-.6,7.72.91,7.81,7.18.11,7.26-4.21,5.69-8.14,5.71-9.08.05-18.16-.28-27.22.13-5,.22-6.23-1.47-6-6.17C728.87,338.73,728.59,331.63,728.59,324.54Z" transform="translate(-101.76 -250.41)"/><path class="cls-1" d="M764.19,414.17c0,7.66-.27,15.34.09,23,.29,6.35-4,4.95-7.42,4.86s-7.7,1.8-7.61-4.66c.23-15.61.29-31.23,0-46.84-.13-6.42,4.13-4.84,7.43-4.76s7.84-2,7.6,4.56C764,398.26,764.19,406.22,764.19,414.17Z" transform="translate(-101.76 -250.41)"/><path class="cls-1" d="M1167.11,413.89c0,7.66-.3,15.34.09,23,.36,6.95-4.42,5-8,5.19-3.77.23-7.22.67-7.08-5.28.35-15.32.38-30.66,0-46-.17-7.09,4.55-4.84,8-5.08,3.65-.25,7.45-1,7.07,5.18C1166.75,398.53,1167.11,406.22,1167.11,413.89Z" transform="translate(-101.76 -250.41)"/><path class="cls-1" d="M897.6,324.53c0-7.95.36-15.93-.12-23.85-.35-5.66,3-5.16,6.45-4.85s8.4-2.21,8.3,4.86c-.22,15.62-.17,31.24,0,46.86.07,6.76-4.86,4-7.86,4.19s-7.12,1.89-6.83-4.2C897.87,339.88,897.6,332.2,897.6,324.53Z" transform="translate(-101.76 -250.41)"/><path class="cls-1" d="M1031.06,413.91c0,7.63-.34,15.29.11,22.9.36,6-3.25,5.38-7,5.25-3.47-.11-7.33,1.26-7.18-5q.54-23.32,0-46.67c-.13-5.7,3.28-4.95,6.51-4.61,3,.31,7.86-2.36,7.62,4.36C1030.85,398.06,1031.06,406,1031.06,413.91Z" transform="translate(-101.76 -250.41)"/><path class="cls-1" d="M1155.89,380.56c7.44-13.71,8.06-14,19.62-9.42C1169.64,376.1,1165.61,383.89,1155.89,380.56Z" transform="translate(-101.76 -250.41)"/><path class="cls-2" d="M1203.18,408.56c1.77,4.71,7,8.51,4.29,13.59-.67,1.27-7.84,1.3-8.51,0C1196.27,417.12,1201.51,413.3,1203.18,408.56Z" transform="translate(-101.76 -250.41)"/><path class="cls-2" d="M1116.1,411.4c-4.44.86-6.85-.47-6.81-6.6,0-5.91,2.69-6.45,7.25-6.15,5.09.34,11.54-.36,11.42,6.76C1127.85,412,1121.68,411.36,1116.1,411.4Z" transform="translate(-101.76 -250.41)"/><path class="cls-2" d="M705,324c-.06,8.85-6.94,16-15.37,15.87s-15.44-7.58-15.36-16.11,7.61-16.1,15.62-16C698.14,307.83,705,315.26,705,324Z" transform="translate(-101.76 -250.41)"/><path class="cls-2" d="M966.19,323.73c.09,8.85-6.65,16.08-15.08,16.17s-15.53-7.19-15.65-15.81c-.12-8.34,7.21-16.18,15.28-16.33S966.1,315,966.19,323.73Z" transform="translate(-101.76 -250.41)"/></svg>